inDegrees=no
num_controls=7
num_derivatives=13
num_iterations=114
num_multipliers=7
num_parameters=0
num_slacks=7
num_states=26
objective=5.610927
objective_accelerations=0.735739
objective_balance=0.064356
objective_effort=0.688158
objective_height=4.068677
objective_ligament=0.053996
solver_duration=1134.953632
status=Solve_Succeeded
success=true
DataType=double
version=3
OpenSimVersion=4.4-2022-07-23-0e9fedc
endheader
time	/jointset/ground_pelvis/pelvis_tilt/value	/jointset/ground_pelvis/pelvis_tx/value	/jointset/ground_pelvis/pelvis_ty/value	/jointset/hip_l/hip_flexion_l/value	/jointset/hip_l/hip_adduction_l/value	/jointset/hip_l/hip_rotation_l/value	/jointset/back/lumbar_extension/value	/jointset/patellofemoral_l/patellar_flexion_l/value	/jointset/knee_l/knee_flexion_l/value	/jointset/knee_l/knee_adduction_l/value	/jointset/knee_l/knee_rotation_l/value	/jointset/ankle_l/ankle_angle_l/value	/jointset/subtalar_l/subtalar_angle_l/value	/jointset/ground_pelvis/pelvis_tilt/speed	/jointset/ground_pelvis/pelvis_tx/speed	/jointset/ground_pelvis/pelvis_ty/speed	/jointset/hip_l/hip_flexion_l/speed	/jointset/hip_l/hip_adduction_l/speed	/jointset/hip_l/hip_rotation_l/speed	/jointset/back/lumbar_extension/speed	/jointset/patellofemoral_l/patellar_flexion_l/speed	/jointset/knee_l/knee_flexion_l/speed	/jointset/knee_l/knee_adduction_l/speed	/jointset/knee_l/knee_rotation_l/speed	/jointset/ankle_l/ankle_angle_l/speed	/jointset/subtalar_l/subtalar_angle_l/speed	/forceset/tau_hip_flexion_l	/forceset/tau_hip_adduction_l	/forceset/tau_hip_rotation_l	/forceset/tau_knee_flexion_l	/forceset/tau_ankle_angle_l	/forceset/tau_subtalar_angle_l	/forceset/tau_lumbar_extension	lambda_cid13_p0	lambda_cid13_p1	lambda_cid13_p2	lambda_cid13_p3	lambda_cid13_p4	lambda_cid13_p5	lambda_cid14_p0	/jointset/ground_pelvis/pelvis_tilt/accel	/jointset/ground_pelvis/pelvis_tx/accel	/jointset/ground_pelvis/pelvis_ty/accel	/jointset/hip_l/hip_flexion_l/accel	/jointset/hip_l/hip_adduction_l/accel	/jointset/hip_l/hip_rotation_l/accel	/jointset/back/lumbar_extension/accel	/jointset/patellofemoral_l/patellar_flexion_l/accel	/jointset/knee_l/knee_flexion_l/accel	/jointset/knee_l/knee_adduction_l/accel	/jointset/knee_l/knee_rotation_l/accel	/jointset/ankle_l/ankle_angle_l/accel	/jointset/subtalar_l/subtalar_angle_l/accel	gamma_cid13_p0	gamma_cid13_p1	gamma_cid13_p2	gamma_cid13_p3	gamma_cid13_p4	gamma_cid13_p5	gamma_cid14_p0
1	-0.1154516773244658	-0.0627367942246219	0.4232231411325858	2.090784911650386	-0.2982742299377361	0.1217555080809421	-0.9599264912399582	2.093610792656432	2.093610792656437	0.174532402819056	-0.174530655051474	0.2669801007092436	0.09814377702970981	0.03558171612723109	0.005212059502543403	0.05367026534958408	-0.2126757363379165	-0.01626512651895391	-0.04156937120345772	0.0001633845420604337	-0.09610389877931043	-0.09610389877930851	-0.003816267254990479	9.217701615696331e-05	0.07812454686267407	0.01652380662309077	-0.3810454506320504	-0.03399201464496406	-0.06226845187611243	-0.4086308603053765	0.07894032963045446	-0.0008664208146560753	0.4294625738224309	-29.96265670761971	14.97975967352231	-13.53069692812947	23.11867088557666	-827.7142860735892	-23.29101046948201	-0.0228729034695956	-0.5593605048274812	-0.5376829163000246	2.132329756335815	-6.318771910178264	-0.36333258980733	-1.732497426003772	-0.007910863228881779	-5.787485624765762	-5.787485624765845	-0.7463161441628706	0.005144904489185241	0.7387448821515034	-0.0971799240954839	-2.398829793877721e-08	5.00611152399357e-08	-1.322035635641241e-07	8.586897737312014e-08	6.956166444701981e-09	-1.555289751083742e-08	1.025290552658195e-08
1.01	-0.1151240974845346	-0.06271172567688113	0.4238673410617192	2.088339666083457	-0.2984537756335311	0.1212555471285499	-0.9599251585837094	2.092357954680101	2.092357954680104	0.1744546099712198	-0.1745283532842287	0.2677985383156115	0.09830592664186287	0.02992582973896664	-0.0002093481211522226	0.07525356587651194	-0.2765911536536358	-0.0196247223758835	-0.05838669465002998	0.0001065636473878379	-0.1546971979050703	-0.1546971979050698	-0.0118496561439091	0.0003604042641774858	0.08554168916390113	0.01592078516257118	-0.38266958118113	-0.03376421882974828	-0.06227537117500447	-0.4111273233291504	0.07877441765027905	-0.0006949756829664614	0.4312861828744506	-30.21970451102412	14.97375165625208	-13.55651737221633	23.51005736377985	-830.7784849701023	-23.77205073754387	-0.0229593299441544	-0.5699659801115312	-0.54600645895322	2.183904533304142	-6.460594536736597	-0.3193442201410744	-1.650935451528563	-0.004055164624995606	-5.930279092855226	-5.930279092855462	-0.8479438146749769	0.0364625582638084	0.7400011989838571	-0.03964899478029049	-1.904687637954846e-08	4.465310502600945e-08	-1.684688801729344e-07	6.496851613425228e-08	-1.219397633061659e-08	-2.099964136090813e-08	9.129407723994856e-09
1.02	-0.1148533291633421	-0.0627411985600871	0.4247298888626085	2.085248732764482	-0.2986663315151953	0.1205884958121821	-0.9599242916286411	2.090512178305238	2.09051217830523	0.1742932645238654	-0.1745236090597089	0.2686905078039669	0.09846248889186077	0.02421941237927589	-0.005696226686804519	0.09733983970074857	-0.3418132867480687	-0.02286716369302129	-0.07498744399838707	7.024427117113797e-05	-0.2146915784857962	-0.2146915784857998	-0.02052678716957209	0.0005806684444167568	0.09283092326015085	0.01540633419205295	-0.3842937117301913	-0.03353642301453118	-0.06228229047383235	-0.4136237863529268	0.07860850567009776	-0.0005235305512787315	0.4331097919264862	-30.46752236309655	14.9687081500019	-13.58543868105106	23.88282116892054	-833.716040023814	-24.20440546433916	-0.02309413101836516	-0.5694666991127574	-0.5507771046913638	2.232924415797569	-6.580115065921001	-0.3399016818488816	-1.689182606360703	-0.003810559537839244	-6.067701915758963	-6.067701915759605	-0.8750645715117265	-0.00444770906692129	0.7131632411560479	-0.07946582609508962	-9.25318519658665e-09	1.537854453911593e-08	-2.605631947473106e-07	4.306807399729343e-08	-3.946848147761396e-08	-2.017253758077448e-07	2.180752618707531e-08
1.03	-0.1146395838189251	-0.06282573222106262	0.4258157610242865	2.081499248026758	-0.2989106825433033	0.1197568752403407	-0.9599236988171457	2.088059725899556	2.088059725899554	0.174041751658515	-0.1745170517308622	0.2696545323727455	0.09861430847913019	0.01855156551932148	-0.01120771573911672	0.1199132799047071	-0.4082812689725711	-0.02598153223326118	-0.09131981313029255	4.957977995292644e-05	-0.2760049605141299	-0.2760049605141269	-0.02985149288650398	0.0007258906064558222	0.09993111065948367	0.01496513215220862	-0.3859588573535009	-0.03325266195009097	-0.06221840649895567	-0.4162333189994347	0.07869530021933903	-0.0002122042370507669	0.4350302878058431	-30.61772588751742	14.87633429782276	-13.58959967940088	24.02255782939896	-836.656890522599	-24.79601523888227	-0.02326461022581746	-0.5621557349344427	-0.5509122414593448	2.281343382195203	-6.709781062610854	-0.2939147148260953	-1.602738457701719	-0.001005130326371372	-6.194072028913422	-6.19407202891203	-0.9724989128316439	0.02319027749283311	0.7020087754921943	-0.02526965124704729	5.900189417194052e-10	-1.413955217505292e-08	-3.532271929743971e-07	2.115742797361934e-08	-6.682588828146526e-08	-3.842396713831208e-07	3.462647746919326e-08
